<?xml version="1.0" encoding="UTF-8"?>
<svg id="Capa_2" data-name="Capa 2" xmlns="http://www.w3.org/2000/svg" viewBox="0 0 266.75 270.79">
  <defs>
    <style>
      .cls-1 {
        fill: #ef2a3a;
      }
    </style>
  </defs>
  <g id="Capa_1-2" data-name="Capa 1">
    <g>
      <path class="cls-1" d="M205.61,1.38c-1.29,.76-2.51,2.13-2.74,2.97-.23,.76,.53,4.18,1.75,7.45,1.98,5.63,3.5,10.42,9.2,28.52,2.59,8.06,2.51,10.04-.38,15.89-3.27,6.69-10.34,8.74-17.34,5.09-4.26-2.28-6.16-5.09-8.74-12.93-3.42-10.49-10.11-28.59-11.71-31.63-1.98-3.95-5.17-5.25-8.21-3.42-1.22,.68-2.81,2.43-3.42,3.8-1.6,3.19-2.05,1.44,9.89,35.66,1.44,4.18,3.19,8.59,3.8,9.89,3.35,6.54,10.8,13.54,17.57,16.43,4.18,1.82,10.8,2.89,12.93,2.13,.91-.38,1.82-.3,2.05,.08,.46,.68-1.29,2.74-2.81,3.19-.68,.23-.61,1.6,.38,5.7,1.6,6.69,9.43,29.35,15.74,45.47,2.59,6.69,5.32,14.07,6.08,16.35,1.9,5.7,10.87,30.04,12.47,33.84,.76,1.67,2.13,6.08,3.19,9.89,1.06,3.73,2.66,8.14,3.57,9.73,1.9,3.35,5.55,5.86,8.52,5.86s7-2.66,8.44-5.55c1.52-2.81,1.06-9.05-.91-12.78-1.14-2.28-4.18-10.11-9.81-25.78-.99-2.74-3.04-8.21-4.56-12.17-1.52-3.95-4.41-12.01-6.46-17.87-1.98-5.86-6.08-16.65-9.13-23.95-2.97-7.3-6.62-16.73-8.14-20.91-2.89-8.14-5.63-12.55-7.68-12.55-3.65-.08-3.35-1.29,1.67-6.46,2.81-2.89,5.25-6.08,5.55-7.15,.23-1.06,1.22-3.42,2.21-5.17,2.28-4.26,2.89-10.87,1.52-16.58-2.51-11.18-13.99-41.06-16.5-43.19-2.13-1.67-5.02-1.67-7.99,.15Z"/>
      <path class="cls-1" d="M186.07,6.78c-3.04,2.36-3.12,4.64-.53,12.01,1.29,3.65,4.03,11.56,6.01,17.64,5.4,16.04,6.92,19.01,10.27,19.01,2.28,0,6.31-2.66,6.92-4.56,.3-.99-1.29-6.69-4.56-16.2-2.81-7.98-5.78-16.81-6.62-19.54-2.82-9.12-6.78-12.01-11.49-8.36Z"/>
      <path class="cls-1" d="M102.41,46c-10.99,1.02-27.82,6.22-39.7,12.39-16.83,8.7-33.98,23.76-44.27,38.81C4.85,117.02-1.76,142.68,.4,166.62c2.1,22.61,11.05,43.95,25.79,61.55,11.62,13.78,29.54,27.12,45.41,33.73,13.59,5.65,29.41,8.89,43.51,8.89,14.86,0,33.41-4.19,47.64-10.73,6.35-2.92,17.72-9.72,22.99-13.66,7.62-5.72,23.69-22.8,26.61-28.33,.7-1.21,1.71-2.92,2.35-3.81,8.57-11.88,15.05-34.62,11.62-41.16-1.14-2.16-3.94-4.76-6.48-6.03-1.91-.95-1.97-1.21-2.41-6.29-.57-6.67-4-20.96-7.24-30.04-2.73-7.62-8.89-20.64-10.99-23.18-.7-.89-.13,.83,1.33,3.75,7.62,15.43,11.24,28.2,12.77,44.72,1.59,16.9-1.21,29.28-10.23,45.54-2.48,4.51-4.76,7.56-5.27,6.92-.64-.83-8-24.2-8.38-26.61-.25-1.59-1.14-5.59-1.97-8.89-3.37-12.7-6.16-18.67-9.53-20.26-3.87-1.71-11.69-.32-25.03,4.45-10.48,3.75-24.96,7.69-27.06,7.24-5.46-1.02-6.61-8.07-2.03-12.26,1.91-1.78,10.73-4.95,24.33-8.77,24.14-6.86,26.61-7.94,28.58-13.21,1.02-2.67,1.02-3.05,.06-5.84-.51-1.59-1.91-4.13-3.11-5.59-1.14-1.4-2.79-3.75-3.68-5.14-2.35-3.56-9.02-10.35-13.72-13.78-5.46-4-14.55-8.32-23.37-10.99-16.32-4.95-31.95-3.24-48.78,5.34-15.75,8-26.8,19.12-33.79,33.92-5.02,10.48-6.67,17.78-6.67,29.34,0,8.19,.83,13.72,3.24,21.6,7.88,25.66,30.23,45.73,56.09,50.18,7.24,1.21,20.39,1.21,26.99,0,13.02-2.48,24.84-9.34,37.22-21.53,5.91-5.84,6.73-10.99,2.41-14.74l-1.65-1.4-2.86,1.21c-1.65,.7-5.65,3.18-9.02,5.59-13.78,9.78-20.71,12.7-32.77,14.1-12.96,1.4-25.09-1.21-33.98-7.43-5.34-3.68-6.35-4.51-10.61-8.7-13.21-12.89-18.48-27.12-16.64-45.16,1.27-13.15,5.65-23.37,13.08-30.62,9.46-9.34,21.66-15.24,34.81-16.83,4.76-.64,6.92-.57,12.26,.25,3.49,.57,7.94,1.65,9.85,2.35,6.22,2.29,15.82,8.51,20.2,13.02l4.13,4.26-3.49-2.35c-2.29-1.59-3.05-1.91-2.22-.95,.7,.76,1.21,1.52,1.08,1.65-.06,.13,.32,1.21,.89,2.29,.7,1.33,1.14,4.07,1.27,7.56l.19,5.59-1.91,.38c-1.02,.25-3.11,1.08-4.57,1.91-1.46,.76-4.07,1.78-5.84,2.16-1.71,.44-4.89,1.46-6.99,2.29-5.34,2.1-8.19,2.41-11.5,1.27-5.91-2.03-9.15-1.08-13.72,4.07-4.13,4.57-5.78,8.38-6.1,13.85-.38,6.16,1.02,10.04,5.02,14.42,7.49,8.19,19.25,8.38,39.7,.64,8.19-3.11,17.47-6.16,17.66-5.84,.76,1.02,4.45,11.62,5.72,16.51,.95,3.43,3.49,10.99,5.72,16.83,5.4,14.23,6.29,17.09,5.78,18.55-1.14,3.62-13.85,13.21-24.2,18.23-17.78,8.64-36.59,11.88-55.2,9.46-17.4-2.22-37.54-11.43-50.81-23.18-6.35-5.65-7.75-7.11-13.59-14.1-5.08-5.97-6.99-8.89-10.1-15.24-5.91-12.07-7.24-15.94-9.4-27.82-1.46-8.13-1.52-24.71-.13-33.35,2.99-17.78,10.92-33.03,24.26-46.43,21.21-21.15,48.72-31.44,77.43-28.9,4.95,.44,10.86,1.21,13.15,1.71,15.43,3.49,38.75,15.18,49.61,24.84,4.32,3.94,3.49,2.48-1.14-1.84-1.97-1.84-5.53-5.59-7.88-8.26-4-4.57-4.32-5.08-3.68-6.67,.51-1.33,.32-2.48-1.08-5.84-.95-2.29-2.22-4.76-2.73-5.4-1.46-1.71-10.29-5.78-18.99-8.64-8.19-2.73-8.77-3.24-1.4-1.27,6.61,1.78,11.69,3.62,16.7,6.16,5.14,2.54,5.14,1.71-.06-1.08-7.81-4.26-24.33-9.02-36.33-10.48-7.96-1.08-16.15-1.15-25.11-.32Zm34.94,3.11l1.27,.57-1.27-.06c-.7,0-1.97-.25-2.86-.51l-1.59-.51h1.59c.89,0,2.16,.19,2.86,.51Zm-5.4,40.65c.7,.51,.44,.57-.95,.25-2.35-.51-2.86-.89-1.21-.89,.64,0,1.65,.32,2.16,.64Zm6.16,2.16c12.51,4.26,20.71,9.91,28.77,19.75,4.38,5.4,6.99,9.53,3.18,5.08-5.59-6.48-16.07-16.2-20.33-18.67-2.41-1.46-7.05-3.62-10.29-4.89-5.27-2.03-6.99-2.79-6.1-2.79,.13,0,2.29,.7,4.77,1.52Zm39.89,62.38c1.4,.64,2.1,1.4,2.03,2.16-.06,1.02-.25,1.02-1.71-.44-.89-.89-2.16-1.84-2.86-2.16-.7-.25-.89-.51-.44-.51,.5-.07,1.84,.37,2.98,.95Zm-54.56,10.16c1.65,1.02,2.1,1.52,1.33,1.52-1.4,0-5.53-3.94-5.53-5.21,.06-.44,.44-.13,.89,.7s1.97,2.16,3.31,2.99Zm-62.82,1.65c-.19,.44-.32,.13-.32-.76s.13-1.21,.32-.83c.13,.45,.13,1.21,0,1.59Zm3.94,12.83c5.53,12.7,20.45,27.06,33.28,31.82,1.65,.64,2.99,1.21,2.99,1.4,0,1.14-11.94-4.57-16.51-8-8-5.91-15.43-14.48-19.25-21.98-1.97-4-4.26-11.37-4.19-13.59,0-.89,.57,.32,1.21,2.79,.63,2.41,1.77,5.84,2.47,7.56Zm121.25-5.34c0,.51-.38-.06-.83-1.27-.44-1.21-.83-2.67-.83-3.18s.38,.06,.83,1.27c.45,1.22,.83,2.68,.83,3.18Zm-163.74,13.98c3.75,11.31,10.8,22.99,20.26,33.6,4.64,5.27,15.43,14.16,20.77,17.28,1.91,1.08,3.37,2.1,3.24,2.29-.44,.38-8-4.38-12.83-8-15.88-12-29.85-33.47-34.3-52.53-.51-2.29-.95-4.76-.89-5.53,0-.76,.57,.89,1.21,3.68,.63,2.79,1.77,6.92,2.54,9.21Zm50.17,56.27c0,.13-.83-.13-1.91-.7-1.02-.57-1.91-1.14-1.91-1.33,0-.13,.89,.13,1.91,.7,1.09,.57,1.91,1.14,1.91,1.33Zm8.26,3.43c.51,.32,.7,.64,.32,.64-.32,0-1.08-.32-1.59-.64-.51-.32-.64-.64-.32-.64,.38,.01,1.08,.33,1.59,.64Zm11.88,4.2c-.19,.19-.76,.25-1.21,.06-.51-.19-.32-.38,.38-.38,.7-.07,1.08,.13,.83,.32Z"/>
      <path class="cls-1" d="M193.56,100.18c0,.13,.51,.64,1.14,1.08,.95,.83,1.02,.76,.19-.25-.82-1.02-1.33-1.34-1.33-.83Z"/>
      <path class="cls-1" d="M196.04,103.61c.38,.76,1.02,1.52,1.4,1.78,.51,.25,.51,.06,0-.89-.38-.76-1.02-1.52-1.4-1.78-.51-.25-.51-.06,0,.89Z"/>
      <path class="cls-1" d="M87.81,126.03c-4.76,3.43-13.02,16.7-13.02,21.02,0,1.52,.44,2.03,2.73,3.05,4.13,1.91,5.21,1.65,6.42-1.27,.57-1.4,1.02-3.05,1.02-3.62,0-1.97,3.05-6.22,6.67-9.34,1.97-1.71,3.81-3.68,4.13-4.45,.89-2.41-2.35-6.73-5.08-6.73-.52,.01-1.86,.64-2.87,1.34Z"/>
    </g>
  </g>
</svg>