<svg width="147" height="37" viewBox="0 0 147 37" fill="none" xmlns="http://www.w3.org/2000/svg">
<g clip-path="url(#clip0_330_3447)">
<path d="M28.3748 0.684936C28.2 0.786266 28.0362 0.967816 28.0054 1.07928C27.9745 1.18061 28.0774 1.6349 28.2411 2.06978C28.5077 2.81793 28.7134 3.45462 29.4832 5.86036C29.8321 6.93193 29.8219 7.19454 29.4318 7.97309C28.9903 8.86311 28.0362 9.13585 27.0915 8.65032C26.5172 8.34717 26.26 7.97309 25.9111 6.93193C25.4491 5.53695 24.5464 3.13121 24.3303 2.72673C24.0637 2.20066 23.6326 2.02925 23.2219 2.27159C23.0573 2.36279 22.8422 2.59501 22.7599 2.7774C22.5447 3.20214 22.483 2.96908 24.0937 7.5188C24.2883 8.07442 24.5249 8.66129 24.6072 8.83271C25.059 9.70246 26.0646 10.6322 26.9784 11.0164C27.5424 11.2587 28.4357 11.4006 28.7229 11.2992C28.8463 11.2486 28.9689 11.2587 28.9998 11.3094C29.0615 11.4006 28.8249 11.6733 28.62 11.7341C28.5274 11.7645 28.5377 11.9461 28.6714 12.4924C28.8866 13.3824 29.9444 16.3945 30.7957 18.5376C31.1446 19.4276 31.5141 20.408 31.6169 20.7111C31.8732 21.4694 33.0845 24.7044 33.2997 25.2102C33.4026 25.4322 33.5869 26.0191 33.7309 26.5241C33.8749 27.0197 34.0901 27.6058 34.2135 27.8177C34.4698 28.2627 34.9628 28.5963 35.3631 28.5963C35.7634 28.5963 36.3069 28.2425 36.5024 27.8583C36.7072 27.4842 36.6464 26.655 36.3789 26.1601C36.2246 25.857 35.8149 24.8158 35.0553 22.7335C34.9216 22.3695 34.6447 21.6417 34.4398 21.1156C34.235 20.5895 33.8449 19.518 33.5672 18.7402C33.3006 17.9617 32.7459 16.5262 32.3353 15.556C31.935 14.5857 31.4421 13.3318 31.2372 12.7761C30.8471 11.6944 30.4777 11.1084 30.2008 11.1084C29.7078 11.0983 29.749 10.9362 30.4262 10.2488C30.806 9.86459 31.1343 9.43984 31.1754 9.29883C31.2063 9.15697 31.34 8.84369 31.4729 8.61147C31.7807 8.04571 31.863 7.16583 31.6778 6.40755C31.3392 4.92137 29.7893 0.948394 29.4507 0.665515C29.1635 0.443433 28.7734 0.443433 28.3731 0.685781L28.3748 0.684936Z" fill="#EF2A3A"/>
<path d="M25.7372 1.40267C25.3266 1.71595 25.3163 2.01909 25.6652 3.0003C25.8401 3.48584 26.2095 4.53714 26.4761 5.34525C27.2048 7.47824 27.4097 7.87258 27.8614 7.87258C28.1692 7.87258 28.7135 7.51877 28.795 7.26629C28.8361 7.13456 28.6201 6.37628 28.1795 5.11303C27.7997 4.0516 27.3994 2.87871 27.2862 2.51476C26.9065 1.30134 26.3724 0.917127 25.7363 1.40267H25.7372Z" fill="#EF2A3A"/>
<path d="M14.4464 6.61612C12.9634 6.75123 10.6917 7.44365 9.08864 8.26273C6.81694 9.41958 4.50238 11.4209 3.11365 13.4221C1.27914 16.0567 0.387607 19.4681 0.679071 22.6516C0.961961 25.6577 2.17068 28.4949 4.15948 30.834C5.72824 32.6664 8.14567 34.4396 10.2888 35.3178C12.1233 36.0694 14.2578 36.5 16.1609 36.5C18.1669 36.5 20.67 35.9427 22.5903 35.073C23.4475 34.6845 24.982 33.781 25.6935 33.2575C26.7222 32.4975 28.891 30.226 29.2853 29.4914C29.3796 29.3309 29.5168 29.1029 29.6025 28.9847C30.7598 27.4056 31.6342 24.3826 31.1713 23.5129C31.017 23.2258 30.6398 22.8796 30.2969 22.7107C30.0397 22.584 30.0311 22.5503 29.9711 21.8747C29.894 20.9881 29.4311 19.0882 28.9939 17.8806C28.6253 16.8673 27.7937 15.1363 27.5108 14.7985C27.4165 14.6803 27.4937 14.9083 27.6909 15.2967C28.7196 17.3487 29.2082 19.0459 29.4139 21.2414C29.6282 23.4876 29.251 25.1342 28.0338 27.2959C27.6994 27.8954 27.3908 28.3007 27.3222 28.2163C27.2365 28.1065 26.2421 24.9991 26.1907 24.6782C26.1564 24.4671 26.0364 23.9351 25.9249 23.496C25.4706 21.8072 25.0934 21.0134 24.6391 20.8023C24.1161 20.5743 23.0617 20.7601 21.2615 21.3934C19.8471 21.8916 17.8925 22.4152 17.6097 22.356C16.8724 22.2209 16.7181 21.2836 17.3353 20.7263C17.5925 20.4899 18.7841 20.0677 20.6186 19.561C23.8761 18.6491 24.2104 18.5055 24.4762 17.8046C24.6133 17.45 24.6133 17.3993 24.4848 17.0278C24.4162 16.8167 24.2276 16.4789 24.0647 16.2847C23.9104 16.0989 23.6875 15.7865 23.5675 15.6007C23.2503 15.1278 22.3502 14.2243 21.7159 13.7683C20.9786 13.2363 19.7528 12.6621 18.5612 12.3075C16.3581 11.6488 14.2493 11.8768 11.9776 13.0168C9.85159 14.0808 8.35998 15.5585 7.41702 17.526C6.73979 18.9193 6.51691 19.8903 6.51691 21.4272C6.51691 22.5165 6.62835 23.2511 6.9541 24.2982C8.01709 27.7096 11.0346 30.378 14.5236 30.9691C15.5008 31.1295 17.2753 31.1295 18.1669 30.9691C19.9242 30.6398 21.5187 29.7278 23.1903 28.1065C23.9876 27.3297 24.099 26.6457 23.5161 26.1475L23.2932 25.9617L22.9074 26.1221C22.6845 26.215 22.1445 26.5443 21.6901 26.8652C19.8299 28.1656 18.8955 28.5541 17.2668 28.7398C15.518 28.9256 13.8806 28.5794 12.6805 27.7519C11.9604 27.2621 11.8233 27.1523 11.2489 26.595C9.46583 24.8808 8.75432 22.9894 9.00292 20.5912C9.17437 18.8433 9.76587 17.4838 10.7688 16.5211C12.0461 15.2798 13.692 14.4945 15.4665 14.2834C16.1095 14.199 16.4009 14.2074 17.121 14.3172C17.5925 14.3932 18.1926 14.5367 18.4498 14.6296C19.2899 14.9336 20.5843 15.7612 21.1758 16.3607L21.733 16.9264L21.2615 16.614C20.9529 16.4029 20.85 16.3607 20.9615 16.4873C21.0558 16.5887 21.1244 16.69 21.1072 16.7069C21.0986 16.7238 21.1501 16.8673 21.2272 17.0109C21.3215 17.1882 21.3815 17.5513 21.3987 18.0157L21.4244 18.7588L21.1672 18.8095C21.0301 18.8433 20.7472 18.953 20.55 19.0628C20.3528 19.1641 20.0014 19.2993 19.7613 19.3499C19.5299 19.409 19.1013 19.5441 18.8184 19.6539C18.0983 19.9326 17.7125 19.9748 17.2668 19.8228C16.4695 19.5526 16.0323 19.6792 15.4151 20.3632C14.8579 20.9712 14.635 21.4778 14.5922 22.204C14.5407 23.0231 14.7293 23.5382 15.2694 24.1209C16.2809 25.2102 17.8668 25.2355 20.6272 24.2053C21.733 23.7916 22.9846 23.3862 23.0103 23.4285C23.1132 23.5636 23.6104 24.9737 23.7818 25.6239C23.9104 26.0799 24.2533 27.0848 24.5533 27.8616C25.282 29.7531 25.402 30.1331 25.3334 30.3273C25.1791 30.8086 23.4646 32.0837 22.0673 32.7508C19.667 33.8992 17.1296 34.3299 14.6179 34.009C12.269 33.7134 9.55155 32.489 7.75991 30.9269C6.90267 30.1753 6.71407 29.9811 5.92541 29.0523C5.23961 28.2585 4.98244 27.8701 4.56239 27.0257C3.76515 25.4213 3.58513 24.9062 3.29367 23.3271C3.0965 22.2463 3.08793 20.0423 3.27652 18.8939C3.67943 16.5296 4.75098 14.503 6.5512 12.7213C9.4144 9.90935 13.1263 8.54139 17.001 8.87916C17.6697 8.93827 18.4669 9.0396 18.7755 9.10715C20.8586 9.57158 24.0047 11.1253 25.4706 12.4088C26.0535 12.9324 25.9421 12.7381 25.3163 12.1639C25.0505 11.9191 24.5705 11.4209 24.2533 11.0662C23.7132 10.4582 23.6704 10.3907 23.7561 10.1796C23.8247 10.0022 23.799 9.85024 23.6104 9.4027C23.4818 9.09871 23.3103 8.76938 23.2418 8.68494C23.0446 8.45695 21.853 7.91652 20.6786 7.53654C19.5727 7.17344 19.4956 7.10588 20.49 7.36765C21.3815 7.60409 22.0673 7.84897 22.7446 8.18674C23.4389 8.5245 23.4389 8.41473 22.736 8.04319C21.6816 7.47743 19.4527 6.84411 17.8325 6.6499C16.761 6.51479 15.6551 6.50635 14.4464 6.61612ZM19.1613 7.02989L19.3327 7.10588L19.1613 7.09744C19.067 7.09744 18.8955 7.06366 18.7755 7.02989L18.5612 6.96233H18.7755C18.8955 6.96233 19.067 6.98767 19.1613 7.02989ZM18.4326 12.4342C18.5269 12.5017 18.4926 12.5101 18.304 12.4679C17.9868 12.4004 17.9183 12.3497 18.1411 12.3497C18.2269 12.3497 18.364 12.3919 18.4326 12.4342ZM19.2641 12.7213C20.9529 13.287 22.0588 14.0385 23.1475 15.3474C23.739 16.0651 24.0904 16.614 23.5761 16.0229C22.8217 15.1616 21.4073 13.8697 20.8329 13.5403C20.5071 13.3461 19.8814 13.059 19.4442 12.8901C18.7326 12.6199 18.5012 12.5186 18.6212 12.5186C18.6384 12.5186 18.9298 12.6115 19.2641 12.7213ZM24.6476 21.0134C24.8362 21.0979 24.9305 21.1992 24.922 21.3005C24.9134 21.4356 24.8877 21.4356 24.6905 21.2414C24.5705 21.1232 24.399 20.9965 24.3047 20.9543C24.2104 20.9205 24.1847 20.8868 24.2447 20.8868C24.3133 20.8783 24.4933 20.9374 24.6476 21.0134ZM17.2839 22.3645C17.5068 22.4996 17.5668 22.5671 17.4639 22.5671C17.2753 22.5671 16.7181 22.0436 16.7181 21.8747C16.7267 21.8156 16.7781 21.8578 16.8381 21.9676C16.8981 22.0774 17.1039 22.2547 17.2839 22.3645ZM8.80575 22.584C8.78003 22.6431 8.76289 22.6009 8.76289 22.4827C8.76289 22.3645 8.78003 22.3223 8.80575 22.3729C8.8229 22.432 8.8229 22.5334 8.80575 22.584ZM9.33724 24.2898C10.083 25.9786 12.0976 27.887 13.8292 28.5203C14.0521 28.6047 14.2321 28.6807 14.2321 28.7061C14.2321 28.858 12.6205 28.0981 12.0033 27.6421C10.9231 26.8568 9.92017 25.7168 9.40582 24.7204C9.14008 24.1884 8.83147 23.2089 8.84004 22.9134C8.84004 22.7951 8.91719 22.9556 9.00292 23.2849C9.08864 23.6058 9.24295 24.0618 9.33724 24.2898ZM25.702 23.5804C25.702 23.648 25.6506 23.572 25.5906 23.4116C25.5306 23.2511 25.4792 23.0569 25.4792 22.9894C25.4792 22.9218 25.5306 22.9978 25.5906 23.1582C25.6506 23.3187 25.702 23.5129 25.702 23.5804ZM3.60228 25.4382C4.10805 26.9412 5.05959 28.4949 6.33689 29.9051C6.96268 30.606 8.41999 31.7882 9.14008 32.2019C9.39725 32.3455 9.59442 32.4806 9.57727 32.5059C9.51727 32.5566 8.49714 31.9233 7.84564 31.442C5.70253 29.846 3.81659 26.9919 3.21652 24.4586C3.14794 24.1546 3.08793 23.8253 3.0965 23.724C3.0965 23.6227 3.17365 23.8422 3.25938 24.2138C3.3451 24.5853 3.49941 25.1342 3.60228 25.4382ZM10.3745 32.9197C10.3745 32.9366 10.2631 32.9028 10.1173 32.8268C9.98018 32.7508 9.86016 32.6748 9.86016 32.6495C9.86016 32.6326 9.98018 32.6664 10.1173 32.7424C10.2631 32.8184 10.3745 32.8944 10.3745 32.9197ZM11.4889 33.3757C11.5575 33.4179 11.5832 33.4601 11.5318 33.4601C11.4889 33.4601 11.3861 33.4179 11.3175 33.3757C11.2489 33.3335 11.2318 33.2912 11.2746 33.2912C11.3261 33.2912 11.4203 33.3335 11.4889 33.3757ZM13.092 33.933C13.0663 33.9583 12.9891 33.9668 12.9291 33.9414C12.8605 33.9161 12.8862 33.8908 12.9805 33.8908C13.0748 33.8823 13.1263 33.9077 13.092 33.933Z" fill="#EF2A3A"/>
<path d="M26.7478 13.819C26.7478 13.8359 26.8164 13.9034 26.9021 13.9625C27.0307 14.0723 27.0393 14.0639 26.9278 13.9288C26.8164 13.7936 26.7478 13.7514 26.7478 13.819Z" fill="#EF2A3A"/>
<path d="M27.0822 14.275C27.1336 14.3763 27.2194 14.4776 27.2708 14.5114C27.3394 14.5452 27.3394 14.5198 27.2708 14.3932C27.2194 14.2919 27.1336 14.1905 27.0822 14.1567C27.0136 14.123 27.0136 14.1483 27.0822 14.275Z" fill="#EF2A3A"/>
<path d="M12.4746 17.2558C11.8317 17.7117 10.7173 19.4766 10.7173 20.0508C10.7173 20.2534 10.7773 20.321 11.0859 20.4561C11.6431 20.7094 11.7888 20.6756 11.9517 20.2872C12.0289 20.1014 12.0889 19.8819 12.0889 19.8059C12.0889 19.5441 12.5004 18.9784 12.989 18.5646C13.2547 18.3366 13.5033 18.0748 13.5462 17.9735C13.6662 17.6526 13.229 17.0784 12.8604 17.0784C12.7918 17.0784 12.6118 17.1629 12.4746 17.2558Z" fill="#EF2A3A"/>
</g>
<path d="M59.2756 14.6392C59.1098 14.1023 58.8812 13.6217 58.5895 13.1974C58.3045 12.7666 57.9598 12.3987 57.5554 12.0938C57.1577 11.7888 56.7003 11.5601 56.1832 11.4077C55.6662 11.2486 55.1027 11.169 54.4929 11.169C53.3991 11.169 52.4247 11.4441 51.5696 11.9943C50.7145 12.5445 50.0417 13.3532 49.5511 14.4205C49.0672 15.4811 48.8253 16.7737 48.8253 18.2983C48.8253 19.8362 49.0672 21.1387 49.5511 22.206C50.035 23.2732 50.7079 24.0852 51.5696 24.642C52.4313 25.1922 53.4323 25.4673 54.5724 25.4673C55.6065 25.4673 56.5014 25.2685 57.2571 24.8707C58.0194 24.473 58.6061 23.9096 59.017 23.1804C59.428 22.4446 59.6335 21.5829 59.6335 20.5952L60.4688 20.7244H54.9403V17.8409H63.2031V20.2869C63.2031 22.0303 62.8319 23.5384 62.0895 24.8111C61.3471 26.0838 60.3262 27.0649 59.027 27.7543C57.7277 28.437 56.2363 28.7784 54.5526 28.7784C52.6766 28.7784 51.0294 28.3575 49.6108 27.5156C48.1989 26.6671 47.0952 25.464 46.2997 23.9062C45.5109 22.3419 45.1165 20.4858 45.1165 18.3381C45.1165 16.6941 45.3485 15.2259 45.8125 13.9332C46.2831 12.6406 46.9394 11.5436 47.7812 10.642C48.6231 9.7339 49.6108 9.04451 50.7443 8.57386C51.8778 8.09659 53.1108 7.85795 54.4432 7.85795C55.5701 7.85795 56.6207 8.02367 57.5952 8.35511C58.5696 8.67992 59.4347 9.14394 60.1903 9.74716C60.9527 10.3504 61.5791 11.0663 62.0696 11.8949C62.5601 12.7235 62.8816 13.6383 63.0341 14.6392H59.2756ZM76.3455 22.0767V13.2273H79.945V28.5H76.4549V25.7855H76.2958C75.9511 26.6406 75.3844 27.34 74.5955 27.8835C73.8133 28.4271 72.8488 28.6989 71.7021 28.6989C70.7011 28.6989 69.8162 28.4768 69.0472 28.0327C68.2849 27.5819 67.6883 26.929 67.2575 26.0739C66.8266 25.2121 66.6112 24.1714 66.6112 22.9517V13.2273H70.2106V22.3949C70.2106 23.3627 70.4757 24.1316 71.006 24.7017C71.5363 25.2718 72.2324 25.5568 73.0941 25.5568C73.6244 25.5568 74.1381 25.4276 74.6353 25.169C75.1325 24.9105 75.5401 24.526 75.8583 24.0156C76.1831 23.4986 76.3455 22.8523 76.3455 22.0767ZM83.6463 28.5V13.2273H87.1364V15.7727H87.2955C87.5739 14.8911 88.0511 14.2116 88.7273 13.7344C89.41 13.2505 90.1889 13.0085 91.0639 13.0085C91.2628 13.0085 91.4848 13.0185 91.7301 13.0384C91.982 13.0516 92.1908 13.0748 92.3565 13.108V16.419C92.2041 16.366 91.9621 16.3196 91.6307 16.2798C91.3059 16.2334 90.991 16.2102 90.6861 16.2102C90.0298 16.2102 89.4399 16.3527 88.9162 16.6378C88.3991 16.9162 87.9915 17.304 87.6932 17.8011C87.3949 18.2983 87.2457 18.8717 87.2457 19.5213V28.5H83.6463ZM96.1996 28.5H93.6143L101.092 8.13636H103.637L111.114 28.5H108.529L102.444 11.358H102.285L96.1996 28.5ZM97.1541 20.5455H107.575V22.733H97.1541V20.5455ZM113.968 34.2273V13.2273H116.235V15.6534H116.513C116.686 15.3883 116.924 15.0502 117.229 14.6392C117.541 14.2216 117.985 13.8504 118.562 13.5256C119.145 13.1941 119.934 13.0284 120.928 13.0284C122.214 13.0284 123.348 13.3499 124.329 13.9929C125.31 14.6359 126.076 15.5473 126.626 16.7273C127.176 17.9072 127.451 19.2992 127.451 20.9034C127.451 22.5208 127.176 23.9228 126.626 25.1094C126.076 26.2893 125.313 27.2041 124.339 27.8537C123.364 28.4967 122.241 28.8182 120.968 28.8182C119.987 28.8182 119.201 28.6558 118.612 28.331C118.022 27.9995 117.567 27.625 117.249 27.2074C116.931 26.7831 116.686 26.4318 116.513 26.1534H116.315V34.2273H113.968ZM116.275 20.8636C116.275 22.017 116.444 23.0346 116.782 23.9162C117.12 24.7912 117.614 25.4773 118.263 25.9744C118.913 26.465 119.709 26.7102 120.65 26.7102C121.631 26.7102 122.45 26.4517 123.106 25.9347C123.769 25.411 124.266 24.7083 124.597 23.8267C124.935 22.9384 125.104 21.9508 125.104 20.8636C125.104 19.7898 124.939 18.822 124.607 17.9602C124.282 17.0919 123.789 16.4058 123.126 15.902C122.469 15.3916 121.644 15.1364 120.65 15.1364C119.695 15.1364 118.893 15.3783 118.244 15.8622C117.594 16.3395 117.103 17.009 116.772 17.8707C116.441 18.7259 116.275 19.7235 116.275 20.8636ZM131.031 34.2273V13.2273H133.298V15.6534H133.576C133.748 15.3883 133.987 15.0502 134.292 14.6392C134.603 14.2216 135.048 13.8504 135.624 13.5256C136.208 13.1941 136.996 13.0284 137.991 13.0284C139.277 13.0284 140.41 13.3499 141.391 13.9929C142.372 14.6359 143.138 15.5473 143.688 16.7273C144.238 17.9072 144.513 19.2992 144.513 20.9034C144.513 22.5208 144.238 23.9228 143.688 25.1094C143.138 26.2893 142.376 27.2041 141.401 27.8537C140.427 28.4967 139.303 28.8182 138.031 28.8182C137.049 28.8182 136.264 28.6558 135.674 28.331C135.084 27.9995 134.63 27.625 134.312 27.2074C133.994 26.7831 133.748 26.4318 133.576 26.1534H133.377V34.2273H131.031ZM133.337 20.8636C133.337 22.017 133.506 23.0346 133.844 23.9162C134.183 24.7912 134.676 25.4773 135.326 25.9744C135.976 26.465 136.771 26.7102 137.712 26.7102C138.693 26.7102 139.512 26.4517 140.168 25.9347C140.831 25.411 141.328 24.7083 141.66 23.8267C141.998 22.9384 142.167 21.9508 142.167 20.8636C142.167 19.7898 142.001 18.822 141.67 17.9602C141.345 17.0919 140.851 16.4058 140.188 15.902C139.532 15.3916 138.707 15.1364 137.712 15.1364C136.758 15.1364 135.956 15.3783 135.306 15.8622C134.656 16.3395 134.166 17.009 133.835 17.8707C133.503 18.7259 133.337 19.7235 133.337 20.8636Z" fill="#262626"/>
<defs>
<clipPath id="clip0_330_3447">
<rect width="36" height="36" fill="white" transform="translate(0.625 0.5)"/>
</clipPath>
</defs>
</svg>
